<?xml version="1.0" encoding="utf-8"?>
<!-- Generator: Adobe Illustrator 24.3.0, SVG Export Plug-In . SVG Version: 6.00 Build 0)  -->
<svg version="1.1" id="Layer_1" xmlns="http://www.w3.org/2000/svg" xmlns:xlink="http://www.w3.org/1999/xlink" x="0px" y="0px"
	 viewBox="0 0 2800.8 1705.1" style="enable-background:new 0 0 2800.8 1705.1;" xml:space="preserve">
<style type="text/css">
	.st0{fill:#0859A8;}
</style>
<g>
	<path class="st0" d="M1793.6,691.1c0-46.6-37.3-84.4-83.3-84.4c-13.7,0-26.6,3.4-38,9.3l-79.6-139.6c22.9-15,38.1-41.2,38.1-70.9
		c0-46.6-37.3-84.4-83.3-84.4c-29.5,0-55.4,15.6-70.2,39h-281.6l-188.6,330.9l188.6,330.9H1574l140.6-246.7
		C1758.6,773.1,1793.6,736.2,1793.6,691.1z M1665.2,620.2c-10.1,6.6-18.6,15.3-25.1,25.5h-184.9c-6.5-10.2-15.1-19-25.2-25.5
		l79.5-139.6c11.4,5.9,24.3,9.3,38,9.3c13.7,0,26.6-3.4,38-9.3L1665.2,620.2z M1385.1,775.6c13.7,0,26.5-3.4,37.9-9.3l94,165h-264.1
		l94.4-164.9C1358.6,772.2,1371.5,775.6,1385.1,775.6z M1412.3,691.2c0,15.6-12.2,28.3-27.2,28.3s-27.2-12.7-27.2-28.3
		c0-15.6,12.2-28.3,27.2-28.3S1412.3,675.6,1412.3,691.2z M1547.6,377.2c15,0,27.2,12.7,27.2,28.3s-12.2,28.3-27.2,28.3
		s-27.2-12.7-27.2-28.3S1532.6,377.2,1547.6,377.2z M1502.5,476.4L1422.9,616c-11.4-5.9-24.2-9.2-37.8-9.2
		c-13.7,0-26.5,3.4-37.9,9.3l-94.3-165.2h224.6C1483.9,461.1,1492.4,469.8,1502.5,476.4z M1111.7,691.1l134.3-235.6l94.1,164.8
		c-23,15-38.2,41.2-38.2,71c0,29.8,15.3,56,38.4,71L1246,926.8L1111.7,691.1z M1523.9,926.7l-93.7-164.5
		c10.1-6.6,18.7-15.4,25.2-25.7h176.9L1523.9,926.7z M1710.3,719.4c-15,0-27.2-12.7-27.2-28.3s12.2-28.3,27.2-28.3
		s27.2,12.7,27.2,28.3S1725.3,719.4,1710.3,719.4z"/>
	<path class="st0" d="M1400.4,781.2"/>
	<path class="st0" d="M1710.9,673.7"/>
	<g>
		<path class="st0" d="M1112,1304.6l-2.5,12.1h-101.9l56.4-64.6c22.3-25.2,34.6-41.1,34.6-60.1c0-22.8-17.1-39.1-38.8-39.1
			s-38.6,16.6-38.6,38.3c0,7.4,2,13.9,4.9,20.5l-12.6,2.5c-3.5-7.2-5.2-14.8-5.2-23c0-28.4,22.3-50.5,51.5-50.5
			c28.9,0,51.7,21.5,51.7,51.2c0,20.5-11.4,37.6-37.4,67l-40.1,45.5H1112z"/>
		<path class="st0" d="M1136.3,1230.2c0-48.2,22.5-88.8,63.1-88.8c40.6,0,63.1,40.6,63.1,88.8s-22.5,88.8-63.1,88.8
			C1158.8,1319,1136.3,1278.4,1136.3,1230.2z M1249.3,1230.2c0-41.1-16.6-76.9-50-76.9c-33.4,0-50,35.9-50,76.9s16.6,76.9,50,76.9
			C1232.8,1307.1,1249.3,1271.2,1249.3,1230.2z"/>
		<path class="st0" d="M1389,1304.6l-2.5,12.1h-101.9l56.4-64.6c22.3-25.2,34.6-41.1,34.6-60.1c0-22.8-17.1-39.1-38.8-39.1
			s-38.6,16.6-38.6,38.3c0,7.4,2,13.9,4.9,20.5l-12.6,2.5c-3.5-7.2-5.2-14.8-5.2-23c0-28.4,22.3-50.5,51.5-50.5
			c28.9,0,51.7,21.5,51.7,51.2c0,20.5-11.4,37.6-37.4,67l-40.1,45.5H1389z"/>
		<path class="st0" d="M1413.2,1230.2c0-48.2,22.5-88.8,63.1-88.8c40.6,0,63.1,40.6,63.1,88.8s-22.5,88.8-63.1,88.8
			C1435.7,1319,1413.2,1278.4,1413.2,1230.2z M1526.3,1230.2c0-41.1-16.6-76.9-50-76.9c-33.4,0-50,35.9-50,76.9s16.6,76.9,50,76.9
			C1509.7,1307.1,1526.3,1271.2,1526.3,1230.2z"/>
		<path class="st0" d="M1737,1200.7l-9.4,53.4h29.4v11.1h-31.2l-9.2,51.5h-12.4l9.2-51.5h-50.5l-9.2,51.5h-12.4l9.2-51.5h-29.2
			v-11.1h30.9l9.4-53.4h-28.9v-11.1h30.9l8.2-46h12.4l-8.2,46h50.5l8.2-46h12.4l-8.2,46h29.4v11.1H1737z M1724.7,1200.7h-50.5
			l-9.4,53.4h50.5L1724.7,1200.7z"/>
		<path class="st0" d="M1880.7,1263.6c0,30.9-25.2,55.4-57.1,55.4c-20,0-36.6-9.4-47.5-24.2l6.9-10.9c8.4,13.4,22.8,23.3,40.6,23.3
			c24.7,0,44.3-19.3,44.3-43.8c0-24-19-43-45-43c-6.7,0-13.4,1.2-20.8,3.2l52.9-68h-73l2.5-11.9h95.5l-53.2,66.8h1.5
			C1857.2,1210.4,1880.7,1233.6,1880.7,1263.6z"/>
	</g>
</g>
</svg>
