<svg width="128" height="128" viewBox="0 0 128 128" fill="none" xmlns="http://www.w3.org/2000/svg">
<rect width="128" height="128" fill="#DCDCDC"/>
<path d="M11.1298 75V57.48H14.0098L22.3618 70.68H22.4098V57.48H25.0498V75H22.1698L13.8178 61.8H13.7698V75H11.1298ZM34.2658 75.24C32.9858 75.24 31.8738 74.976 30.9298 74.448C30.0018 73.92 29.2818 73.168 28.7698 72.192C28.2738 71.216 28.0258 70.072 28.0258 68.76C28.0258 67.432 28.2738 66.288 28.7698 65.328C29.2818 64.352 30.0018 63.6 30.9298 63.072C31.8738 62.544 32.9778 62.28 34.2418 62.28C35.5378 62.28 36.6498 62.544 37.5778 63.072C38.5058 63.6 39.2258 64.352 39.7378 65.328C40.2498 66.288 40.5058 67.432 40.5058 68.76C40.5058 70.072 40.2498 71.216 39.7378 72.192C39.2258 73.168 38.5058 73.92 37.5778 74.448C36.6498 74.976 35.5458 75.24 34.2658 75.24ZM34.2658 73.08C35.4178 73.08 36.3138 72.704 36.9538 71.952C37.5938 71.184 37.9138 70.12 37.9138 68.76C37.9138 67.384 37.5938 66.32 36.9538 65.568C36.3138 64.816 35.4178 64.44 34.2658 64.44C33.1138 64.44 32.2178 64.816 31.5778 65.568C30.9378 66.32 30.6178 67.384 30.6178 68.76C30.6178 70.12 30.9378 71.184 31.5778 71.952C32.2178 72.704 33.1138 73.08 34.2658 73.08ZM50.4162 75V57.48H53.1522V75H50.4162ZM57.2503 75V62.52H59.6743L59.6983 64.2H59.7463C60.1623 63.576 60.6903 63.104 61.3303 62.784C61.9703 62.448 62.6903 62.28 63.4903 62.28C64.3223 62.28 65.0343 62.448 65.6263 62.784C66.2343 63.12 66.6663 63.592 66.9223 64.2H66.9703C67.3863 63.544 67.9223 63.064 68.5783 62.76C69.2343 62.44 70.0183 62.28 70.9303 62.28C72.3063 62.28 73.2903 62.672 73.8823 63.456C74.4743 64.224 74.7703 65.512 74.7703 67.32V75H72.2263V67.68C72.2263 66.512 72.0663 65.68 71.7463 65.184C71.4263 64.688 70.8903 64.44 70.1383 64.44C69.2263 64.44 68.5223 64.776 68.0263 65.448C67.5303 66.104 67.2823 67.048 67.2823 68.28V75H64.7383V67.08C64.7383 66.232 64.5543 65.584 64.1863 65.136C63.8183 64.672 63.3063 64.44 62.6503 64.44C61.8183 64.44 61.1303 64.8 60.5863 65.52C60.0583 66.224 59.7943 67.144 59.7943 68.28V75H57.2503ZM81.0377 75.24C79.7897 75.24 78.8057 74.904 78.0857 74.232C77.3657 73.544 77.0057 72.616 77.0057 71.448C77.0057 69.992 77.5817 68.872 78.7337 68.088C79.8857 67.288 81.5257 66.888 83.6537 66.888H85.4537C85.4537 65.992 85.2217 65.36 84.7577 64.992C84.3097 64.624 83.5337 64.44 82.4297 64.44C81.6297 64.44 80.8617 64.536 80.1257 64.728C79.4057 64.92 78.6697 65.232 77.9177 65.664L77.5817 63.456C78.3497 63.056 79.1497 62.76 79.9817 62.568C80.8297 62.376 81.7497 62.28 82.7417 62.28C84.0217 62.28 85.0457 62.44 85.8137 62.76C86.5977 63.08 87.1657 63.6 87.5177 64.32C87.8697 65.04 88.0457 65.984 88.0457 67.152V75H85.5737L85.5497 73.56H85.5017C85.0697 74.056 84.4297 74.464 83.5817 74.784C82.7497 75.088 81.9017 75.24 81.0377 75.24ZM81.9497 73.128C82.5897 73.128 83.1737 73.008 83.7017 72.768C84.2457 72.528 84.6697 72.208 84.9737 71.808C85.2937 71.408 85.4537 70.96 85.4537 70.464V68.856H84.0137C82.5417 68.856 81.4377 69.048 80.7017 69.432C79.9657 69.816 79.5977 70.4 79.5977 71.184C79.5977 71.792 79.7977 72.272 80.1977 72.624C80.6137 72.96 81.1977 73.128 81.9497 73.128ZM95.9833 80.28C94.9913 80.28 94.0953 80.168 93.2953 79.944C92.5113 79.72 91.8073 79.384 91.1833 78.936L91.7593 76.824C92.3993 77.272 93.0313 77.6 93.6553 77.808C94.2953 78.016 94.9993 78.12 95.7673 78.12C97.1913 78.12 98.2313 77.76 98.8873 77.04C99.5433 76.32 99.8713 75.2 99.8713 73.68V72.888H99.8233C99.3753 73.416 98.7993 73.824 98.0953 74.112C97.3913 74.384 96.6233 74.52 95.7913 74.52C94.1273 74.52 92.8233 73.984 91.8793 72.912C90.9353 71.824 90.4633 70.32 90.4633 68.4C90.4633 66.48 90.9353 64.984 91.8793 63.912C92.8233 62.824 94.1273 62.28 95.7913 62.28C96.6393 62.28 97.4233 62.424 98.1433 62.712C98.8793 63 99.4713 63.4 99.9193 63.912H99.9673L99.9913 62.52H102.463V73.68C102.463 75.888 101.927 77.536 100.855 78.624C99.7833 79.728 98.1593 80.28 95.9833 80.28ZM96.3913 72.36C97.0633 72.36 97.6553 72.24 98.1673 72C98.6953 71.76 99.1113 71.432 99.4153 71.016C99.7193 70.6 99.8713 70.128 99.8713 69.6V67.2C99.8713 66.672 99.7193 66.2 99.4153 65.784C99.1113 65.368 98.6953 65.04 98.1673 64.8C97.6553 64.56 97.0633 64.44 96.3913 64.44C95.3193 64.44 94.4873 64.784 93.8953 65.472C93.3033 66.16 93.0073 67.136 93.0073 68.4C93.0073 69.664 93.3033 70.64 93.8953 71.328C94.4873 72.016 95.3193 72.36 96.3913 72.36ZM111.756 75.24C109.676 75.24 108.068 74.68 106.932 73.56C105.812 72.44 105.252 70.84 105.252 68.76C105.252 66.744 105.788 65.16 106.86 64.008C107.948 62.856 109.436 62.28 111.324 62.28C113.148 62.28 114.548 62.824 115.524 63.912C116.516 65 117.012 66.544 117.012 68.544C117.012 68.752 117.004 68.984 116.988 69.24C116.988 69.496 116.98 69.696 116.964 69.84H106.692V67.8H114.996L114.588 68.424C114.588 67.064 114.316 66.056 113.772 65.4C113.228 64.728 112.412 64.392 111.324 64.392C110.172 64.392 109.292 64.744 108.684 65.448C108.092 66.152 107.796 67.176 107.796 68.52V69.24C107.796 70.504 108.132 71.464 108.804 72.12C109.476 72.76 110.468 73.08 111.78 73.08C112.532 73.08 113.268 72.984 113.988 72.792C114.708 72.6 115.364 72.328 115.956 71.976L116.412 74.064C115.804 74.432 115.1 74.72 114.3 74.928C113.5 75.136 112.652 75.24 111.756 75.24Z" fill="#585858"/>
</svg>
